# xmcd CD database file
#
# Track frame offsets:
#	150
#	13415
#	27232
#	41440
#	54765
#	69050
#	83397
#	96885
#	110292
#	123545
#	138660
#	154632
#	170125
#	185277
#	201212
#	216927
#	229405
#	241852
#	256097
#	269097
#	282320
#	294787
#	309475
#	324465
#	338912
#
# Disc length: 4701 seconds
#
# Revision: 2
# Processed by: cddbd v1.5.2PL0 Copyright (c) Steve Scherf et al.
# Submitted via: CDex 1.51
#
DISCID=62125b19
DTITLE=Various Artist - Thumpin And Bumpin
DYEAR=1996
DGENRE=Jazz
TTITLE0=Jimmie Johnson and his Orch - You've Don't Understand
TTITLE1=Jimmie Johnson and his Orch - You've Got To Be Modernistic
TTITLE2=Cecil Scott and his Bright Boys - Lawd, Lawd
TTITLE3=Cecil Scott and his Bright Boys - In A Corner
TTITLE4=Cecil Scott and his Bright Boys - Bright Boy Blues
TTITLE5=Cecil Scott and his Bright Boys - Springfield Stomp
TTITLE6=Bubber Miley and his Mileage Makers - I Lost My Gal From Memphis
TTITLE7=Bubber Miley and his Mileage Makers - Without You Emaline
TTITLE8=Bubber Miley and his Mileage Makers - Black Maria
TTITLE9=Bubber Miley and his Mileage Makers - Chinnin' and Chattin With May
TTITLE10=Bubber Miley and his Mileage Makers - Loving You The Way I Do
TTITLE11=Bubber Miley and his Mileage Makers - The Penalty of Love
TTITLE12=Dave Nelson and The King's Men - I Ain't Got Nobody
TTITLE13=Dave Nelson and The King's Men - When Day Is Done
TTITLE14=Dave Nelson and The King's Men - Some Of These Days
TTITLE15=Wooding's Grand Central Red Caps - Nina
TTITLE16=Wooding's Grand Central Red Caps - Niagra Falls
TTITLE17=Wooding's Grand Central Red Caps -  I Can't Get Enough Of You
TTITLE18=Eubie Blake and his Orch - Thumpin' and Bumpin'
TTITLE19=Eubie Blake and his Orch - Little Girl
TTITLE20=Eubie Blake and his Orch - My Blue Days Blew Over
TTITLE21=Dave's Harlem Highlights -  Somebody Stole My Gal
TTITLE22=Dave's Harlem Highlights - Rockin' Chair
TTITLE23=Dave's Harlem Highlights - Loveless Love
TTITLE24=Dave's Harlem Highlights - St. Louis Blues
EXTD=YEAR: 1996
EXTT0=
EXTT1=
EXTT2=
EXTT3=
EXTT4=
EXTT5=
EXTT6=
EXTT7=
EXTT8=
EXTT9=
EXTT10=
EXTT11=
EXTT12=
EXTT13=
EXTT14=
EXTT15=
EXTT16=
EXTT17=
EXTT18=
EXTT19=
EXTT20=
EXTT21=
EXTT22=
EXTT23=
EXTT24=
PLAYORDER=
